# xmcd CD database file
# Copyright (C) 1997 Ti Kan
#
# Track frame offsets:
#  150
#  18282
#  31737
#  49957
#  66750
#  88045
#  106440
#  123870
#  136165
#  150140
#
# Disc length: 2187 seconds
#
# Revision: 1
# Processed by: cddbd v1.4b41PL1 Copyright (c) Steve Scherf et al.
# Submitted via: CDWizzard Release:4.24
#
DISCID=7108890a
DTITLE=Lightnin' Hopkins - Blue Lightnin'
DYEAR=1900
DGENRE=
TTITLE0=Found My Baby Crying
TTITLE1=Move On Out, Part 1
TTITLE2=Back Door Friend
TTITLE3=Fishing Clothes
TTITLE4=Morning Blues
TTITLE5=Gambler Blues
TTITLE6=Wig Wearing Woman
TTITLE7=Lonesome Dog Blues
TTITLE8=Last Affair
TTITLE9=Move On Out, Part 2
EXTD=
EXTT0=
EXTT1=
EXTT2=
EXTT3=
EXTT4=
EXTT5=
EXTT6=
EXTT7=
EXTT8=
EXTT9=
PLAYORDER=
